<?xml version="1.0" encoding="utf-8"?>
<svg height="512" viewBox="0 0 60 60" width="512" xmlns="http://www.w3.org/2000/svg">
  <linearGradient id="linearGradient-1" x1="14.64%" x2="85.363%" y1="14.645%" y2="85.358%">
    <stop offset="0" stop-color="#d3dff2"/>
    <stop offset="0.172" stop-color="#d3dff2"/>
    <stop offset="0.2" stop-color="#d3dff2"/>
    <stop offset="0.2" stop-color="#dae2f2"/>
    <stop offset="0.201" stop-color="#ebeaf2"/>
    <stop offset="0.201" stop-color="#f6eff2"/>
    <stop offset="0.202" stop-color="#fdf2f2"/>
    <stop offset="0.205" stop-color="#fff3f2"/>
    <stop offset="0.252" stop-color="#fff3f2"/>
    <stop offset="0.26" stop-color="#fff3f2"/>
    <stop offset="0.26" stop-color="#d3dff2"/>
    <stop offset="0.397" stop-color="#d3dff2"/>
    <stop offset="0.42" stop-color="#d3dff2"/>
    <stop offset="0.42" stop-color="#dae2f2"/>
    <stop offset="0.421" stop-color="#ebeaf2"/>
    <stop offset="0.421" stop-color="#f6eff2"/>
    <stop offset="0.422" stop-color="#fdf2f2"/>
    <stop offset="0.425" stop-color="#fff3f2"/>
    <stop offset="0.489" stop-color="#fff3f2"/>
    <stop offset="0.5" stop-color="#fff3f2"/>
    <stop offset="0.5" stop-color="#f8f0f2"/>
    <stop offset="0.5" stop-color="#e7e8f2"/>
    <stop offset="0.5" stop-color="#dce3f2"/>
    <stop offset="0.5" stop-color="#d5e0f2"/>
    <stop offset="0.501" stop-color="#d3dff2"/>
    <stop offset="0.706" stop-color="#d3dff2"/>
    <stop offset="0.74" stop-color="#d3dff2"/>
    <stop offset="0.741" stop-color="#fff3f2"/>
    <stop offset="0.835" stop-color="#fff3f2"/>
    <stop offset="0.85" stop-color="#fff3f2"/>
    <stop offset="0.851" stop-color="#d3dff2"/>
  </linearGradient>
  <g id="Page-1" fill="none" fill-rule="evenodd">
    <g id="001---Clean-Water" fill-rule="nonzero">
      <g id="Icons" transform="translate(1 1)">
        <path id="Shape" d="m52.03 37.02c.0002652 3.9809808-1.5810557 7.7989872-4.3960343 10.6139657-2.8149785 2.8149786-6.6329849 4.3962995-10.6139657 4.3960343-.8684179-.0003352-1.7351125-.0773004-2.59-.23-7.4798858-1.3064216-12.8058295-7.9933132-12.405808-15.575886.4000215-7.5825729 6.3999827-13.6719621 13.975808-14.184114.34-.03.68-.04 1.02-.04 3.9824699.00053 7.8015298 1.5834792 10.6166234 4.4004483 2.8150936 2.816969 4.3954989 6.6370824 4.3933766 10.6195517z" fill="url(#linearGradient-1)"/>
        <path id="Shape" d="m37.02 22c-.34 0-.68.01-1.02.04-.133.009-.262.033-.394.045 7.6534424.8070622 13.456348 7.2721106 13.434957 14.9679584s-5.8601463 14.1285378-13.517957 14.8930416c.4982222.0537837.9988879.081821 1.5.084 8.2925554-.0000001 15.0149998-6.7224446 15.0149998-15.015s-6.7224444-15.0149999-15.0149998-15.015z" fill="#a4c2f7"/>
        <path id="Shape" d="m34.43 51.8c-3.9216931 4.1384575-9.4321639 6.3929066-15.13 6.19-11.37-.38-20.04-10.59-19.25-21.93.46-6.73 3.25-13.43 6.61-19.21 1.34 1.92 2.34 4.81 2.34 9.15 0-13 9-13 9-13-2.5771893-.1697573-4.9449583-1.4782613-6.46-3.57 2.1444433-2.90678455 4.4619704-5.68180621 6.94-8.31.08-.08.15-.16.22-.24l.3-.3c.1-.11.19-.2.27-.28.1864103-.19183364.4425137-.30007247.71-.30007247s.5235897.10823883.71.30007247c6.2292685 6.38447776 11.3978207 13.7237543 15.31 21.74-.9220078.0587512-1.8362218.206097-2.73.44-6.8479702 1.761063-11.5378747 8.0631054-11.2583487 15.1283658s5.4526531 12.9770873 12.4183487 14.1916342z" fill="#e8edfc"/>
        <path id="Shape" d="m36 22.04c-.9220078.0587512-1.8362218.206097-2.73.44-4.00584-7.7174251-8.9756014-14.89484935-14.79-21.36.08-.08.15-.16.22-.24l.3-.3c.1-.11.19-.2.27-.28.1864103-.19183364.4425137-.30007247.71-.30007247s.5235897.10823883.71.30007247c6.2292685 6.38447776 11.3978207 13.7237543 15.31 21.74z" fill="#cad9fc"/>
        <path id="Shape" d="m57.12 57.12c-1.1712702 1.1698135-3.0687298 1.1698135-4.24 0l-7.58-7.58c1.683967-1.1139641 3.1260359-2.556033 4.24-4.24l7.58 7.58c1.1698135 1.1712702 1.1698135 3.0687298 0 4.24z" fill="#a4c2f7"/>
        <path id="Shape" d="m57.12 52.88-7.58-7.58c-.3983426.5916605-.8384639 1.1540934-1.317 1.683l5.9 5.9c.6676919.651767.9889811 1.5802053.866953 2.5052576-.1220282.9250524-.6730869 1.7384149-1.486953 2.1947424 1.2988601.7523337 2.9541287.4258494 3.8700466-.7633258.915918-1.1891752.8089698-2.8729413-.2500466-3.9366742z" fill="#7facfa"/>
        <path id="Shape" d="m18 13s-9 0-9 13c0-4.34-1-7.23-2.34-9.15-1.50121884-2.2484238-3.962392-3.6711741-6.66-3.85 0 0 9 0 9-13 0 4.55 1.1 7.51 2.54 9.43 1.5150417 2.0917387 3.8828107 3.4002427 6.46 3.57z" fill="#e8edfc"/>
        <path id="Shape" d="m17 54c-.0603571.0000451-.1205972-.0053096-.18-.016-11.62-2.113-12.806-14.774-12.82-14.901-.04611578-.5522847.36421525-1.0373842.9165-1.0835s1.03738422.3642153 1.0835.9165c.039.459 1.085 11.264 11.182 13.1.510085.0923366.8650455.5591501.8176918 1.0753578s-.4813206.9106498-.9996918.9086422z" fill="#428dff"/>
      </g>
      <g id="Icons_copy_2" fill="#fff" transform="translate(1 1)">
        <path id="Shape" d="m6.66 16.85c-3.36 5.78-6.15 12.48-6.61 19.21-.79 11.34 7.88 21.55 19.25 21.93.7406383.0245408 1.4820629.008851 2.221-.047-10.983-.809-19.243-10.804-18.471-21.883.46-6.73 3.25-13.43 6.61-19.21-1.50121884-2.2484238-3.962392-3.6711741-6.66-3.85 3.2905429-.2359791 6.17889459-2.277081 7.5-5.3-1.07548377-2.42032552-1.58833401-5.05295673-1.5-7.7 0 13-9 13-9 13 2.697608.1788259 5.15878116 1.6015762 6.66 3.85z"/>
      </g>
      <g id="Icons_copy">
        <path id="Shape" d="m1.6 28.929 1.912.586c-.77460976 2.4742504-1.26706905 5.0281282-1.468 7.613l-2-.136c.21298013-2.7377401.73496522-5.4426025 1.556-8.063z" fill="#fff"/>
        <g fill="#428dff">
          <path id="Shape" d="m1.6 34.1c-.55228473.0027614-1.00223852-.4427153-1.00499994-.995-.00276143-.5522847.44271521-1.0022385.99499994-1.005h.01c.55228475 0 1 .4477153 1 1s-.44771525 1-1 1z"/>
          <path id="Shape" d="m1 15c1.41374992.1024866 2.77027894.6000538 3.915 1.436.58326503.431267 1.10476964.9403228 1.55 1.513-2.01538053 3.4725759-3.64666046 7.1542725-4.865 10.98-.08126922.2556775-.05518063.533401.07228196.7694708.1274626.2360697.34536131.410228.60371804.4825292.52416959.1474789 1.07089119-.1471138 1.236-.666 1.05620041-3.3283586 2.44487213-6.5419024 4.145-9.592.95077464 2.2351576 1.40883371 4.6489209 1.343 7.077 0 .5522847.44771525 1 1 1 .5522847 0 1-.4477153 1-1 0-11.783 7.678-12 8-12 .5522847 0 1-.4477153 1-1s-.4477153-1-1-1c-1.4137499-.1024866-2.7702789-.6000538-3.915-1.436-.4616042-.3441557-.8841237-.7378365-1.26-1.174 2.2025293-2.94598348 4.5928269-5.74680029 7.156-8.385 5.8035824 5.98801591 10.6921925 12.7993175 14.508 20.214-7.3729114 1.1697555-12.9570956 7.2826251-13.456956 14.7310001s4.217459 14.2525785 11.367956 16.3969999c-3.6094321 3.1485612-8.2801041 4.8085138-13.067 4.644-5.0744436-.1804624-9.8527203-2.4345916-13.219-6.236-3.59357847-3.9917659-5.42099621-9.2666448-5.067-14.626.03039508-.3596197-.13534193-.7077163-.43366542-.9108253-.29832348-.203109-.68294298-.2297142-1.00639064-.069615-.32344767.1600993-.53553456.4820607-.55494394.8424403-.3899067 5.899384 1.62144655 11.7058726 5.577 16.1 3.72785498 4.2078774 9.0188185 6.7020804 14.637 6.9.235.008.469.011.7.011 5.5530671-.0054253 10.8766324-2.2161438 14.8-6.146 3.5912907.5453792 7.260188-.1838009 10.37-2.061l7.034 7.033c1.5748565 1.4778452 4.038467 1.4387098 5.5655884-.0884116s1.5662568-3.9907319.0884116-5.5655884l-7.033-7.034c2.9337936-4.9447524 2.985813-11.0841927.1362283-16.0779477s-8.1616529-8.0722877-13.9112283-8.0620523c-.135 0-.266.017-.4.02-3.9498743-7.8763499-9.0812052-15.10223222-15.216-21.427-.3760333-.37987964-.8884821-.59342998-1.423-.593h-.013c-.5282131.00431874-1.0325877.22047931-1.4.6-2.4793135 2.54742229-4.7996892 5.24484242-6.948 8.077-1.1580404-2.38845402-1.7129004-5.02438233-1.616-7.677 0-.55228475-.4477153-1-1-1-.55228475 0-1 .44771525-1 1 0 11.769-7.66 12-8 12-.55228475 0-1 .4477153-1 1s.44771525 1 1 1zm56.413 39.587c.7262072.7890197.7009029 2.0103747-.0573612 2.7686388s-1.9796191.7835684-2.7686388.0573612l-6.764-6.764c1.0558331-.8208391 2.0051609-1.7701669 2.826-2.826zm-5.382-16.571c0 5.6690338-3.414997 10.7798393-8.65254 12.9491912s-11.266153.9700191-15.2746222-3.0387362c-4.0084693-4.0087552-5.2073719-10.0374507-3.0376463-15.2748389 2.1697256-5.2373883 7.2807747-8.6520206 12.9498085-8.6516161 7.7370055.0088183 14.0067337 6.2789939 14.015 14.016zm-42.031-30.332c.3921133 1.1515237.9543391 2.23788693 1.668 3.223.015152.0259773.0318487.0510223.05.075.9426237 1.2782518 2.1768479 2.3129431 3.6 3.018-2.5528131 1.3008488-4.4709333 3.5789322-5.318 6.316-.84706673-2.7370678-2.76518693-5.0151512-5.318-6.316 2.55281307-1.3008488 4.47093327-3.5789322 5.318-6.316z"/>
        </g>
      </g>
    </g>
    <g transform="matrix(0.754733, 0, 0, 0.838844, 15.678607, 16.690266)" style="">
      <g fill="#428dff" transform="matrix(0.01788, 0, 0, 0.015397, 28.649536, 14.087285)" style="">
        <path d="m60.199219 120.527344c-3.300781 3.363281-3.289063 8.75.027343 12.097656l24.109376 24.109375 12.066406-12.070313-24.164063-24.164062c-1.597656-1.59375-3.765625-2.488281-6.027343-2.480469-2.257813.003907-4.421876.90625-6.011719 2.507813zm0 0"/>
        <path d="m111.164062 62.953125-12.066406-12.070313-18.792968 18.792969c-3.320313 3.328125-3.324219 8.714844-.007813 12.046875 3.316406 3.332032 8.699219 3.355469 12.042969.050782l6.042968-6.039063zm0 0"/>
        <path d="m56.1875 93.792969c-1.574219 1.625-2.480469 3.78125-2.542969 6.042969l.171875 1.632812c.109375.59375.257813 1.179688.449219 1.75.121094.546875.367187 1.058594.71875 1.492188.363281.445312.769531.855468 1.210937 1.226562 1.683594 1.425781 3.765626 2.304688 5.960938 2.515625 4.6875-.117187 8.457031-3.886719 8.578125-8.570313-.03125-1.125-.269531-2.234374-.710937-3.265624-.414063-1.039063-1.027344-1.988282-1.804688-2.789063-1.574219-1.628906-3.742188-2.550781-6.007812-2.554687-2.265626-.007813-4.4375.902343-6.023438 2.519531zm0 0"/>
        <path d="m290.132812 512h-68.265624c-9.421876-.011719-17.054688-7.644531-17.066407-17.066406v-40.703125c-18.550781-4.730469-36.335937-12.078125-52.816406-21.8125l-28.699219 28.695312c-3.183594 3.25-7.542968 5.078125-12.09375 5.058594h-.015625c-4.582031.011719-8.96875-1.84375-12.152343-5.140625l-48.140626-48.128906c-3.25-3.203125-5.070312-7.582032-5.058593-12.148438.015625-4.5625 1.863281-8.929687 5.132812-12.117187l28.617188-28.617188c-9.730469-16.484375-17.074219-34.269531-21.804688-52.820312h-40.703125c-9.421875-.011719-17.0546872-7.644531-17.066406-17.066407v-68.265624c.0117188-9.421876 7.644531-17.054688 17.066406-17.066407h40.703125c5.300781-20.78125 13.875-40.589843 25.402344-58.675781 1.59375-2.65625 4.507813-4.238281 7.605469-4.132812 3.097656.105468 5.894531 1.882812 7.304687 4.640624 1.414063 2.761719 1.214844 6.070313-.511719 8.640626-11.6875 18.355468-20.054687 38.625-24.714843 59.882812-.855469 3.917969-4.328125 6.714844-8.339844 6.710938h-47.449219v68.265624h47.449219c4.011719 0 7.480469 2.792969 8.335937 6.710938 4.660157 21.257812 13.023438 41.527344 24.714844 59.882812 2.148438 3.371094 1.660156 7.78125-1.167968 10.605469l-33.449219 33.453125 48.214843 48.265625 33.5-33.449219c2.828126-2.820312 7.230469-3.304687 10.609376-1.171874 18.351562 11.695312 38.625 20.0625 59.882812 24.71875 3.917969.859374 6.710938 4.328124 6.710938 8.339843v47.445313h68.265624v-47.445313c0-4.011719 2.792969-7.480469 6.707032-8.335937 21.261718-4.660156 41.53125-13.027344 59.886718-24.722656 3.371094-2.140626 7.78125-1.65625 10.605469 1.171874l33.453125 33.449219 48.265625-48.210937-33.449219-33.503906c-2.828124-2.828126-3.316406-7.238282-1.167968-10.609376 11.691406-18.355468 20.054687-38.625 24.714844-59.878906.855468-3.921875 4.328124-6.71875 8.339843-6.714844h47.445313v-68.265624h-47.445313c-4.011719 0-7.480469-2.792969-8.332031-6.710938-4.664062-21.257812-13.027344-41.527344-24.71875-59.882812-2.144531-3.371094-1.660156-7.78125 1.167969-10.605469l33.449219-33.453125-48.214844-48.265625-33.5 33.449219c-2.824219 2.828124-7.234375 3.3125-10.605469 1.171874-18.355469-11.695312-38.625-20.0625-59.886719-24.71875-3.917968-.855468-6.714844-4.328124-6.714844-8.339843v-47.445313h-68.265624v47.445313c0 4.011719-2.792969 7.480469-6.707032 8.335937-21.261718 4.660156-41.53125 13.027344-59.886718 24.722656-3.371094 2.144532-7.78125 1.65625-10.605469-1.171874l-33.453125-33.449219c-3.308594 3.367187-8.722656 3.410156-12.089844.101562-3.367188-3.308593-3.410156-8.722656-.101562-12.089843 3.183593-3.292969 7.570312-5.148438 12.152343-5.136719h.015625c4.582032-.011719 8.976563 1.839843 12.167969 5.128906l28.625 28.625c16.480469-9.734375 34.265625-17.078125 52.816406-21.808594v-40.703125c.011719-9.421875 7.644531-17.0546872 17.066407-17.066406h68.265624c9.421876.0117188 17.054688 7.644531 17.066407 17.066406v40.703125c18.554687 4.730469 36.335937 12.078125 52.820312 21.8125l28.699219-28.695312c3.179688-3.253907 7.542969-5.082031 12.09375-5.0625h.015625c4.578125-.011719 8.96875 1.84375 12.148437 5.136719l48.144532 48.132812c3.246094 3.207031 5.070312 7.585938 5.058594 12.148438-.015626 4.566406-1.867188 8.933593-5.136719 12.117187l-28.617188 28.621094c9.734375 16.484375 17.074219 34.269531 21.808594 52.820312h40.699219c9.421875.011719 17.054687 7.644531 17.066406 17.066407v68.265624c-.011719 9.421876-7.644531 17.054688-17.066406 17.066407h-40.703125c-4.734375 18.550781-12.074219 36.335937-21.808594 52.820312l28.691406 28.699219c3.25 3.203125 5.070313 7.582031 5.058594 12.148438-.015625 4.5625-1.867187 8.929687-5.132813 12.117187l-48.144531 48.132813c-3.207031 3.210937-7.550781 5.027343-12.089843 5.058593-4.585938.011719-8.976563-1.839843-12.167969-5.128906l-28.617188-28.625c-16.484375 9.738281-34.265625 17.082031-52.820312 21.8125v40.699219c-.011719 9.421875-7.644531 17.054687-17.066407 17.066406zm0 0"/>
        <path d="m256 409.601562c-84.832031 0-153.601562-68.769531-153.601562-153.601562s68.769531-153.601562 153.601562-153.601562 153.601562 68.769531 153.601562 153.601562c-.097656 84.789062-68.8125 153.503906-153.601562 153.601562zm0-290.136718c-75.40625 0-136.535156 61.128906-136.535156 136.535156s61.128906 136.535156 136.535156 136.535156 136.535156-61.128906 136.535156-136.535156c-.085937-75.371094-61.164062-136.449219-136.535156-136.535156zm0 0"/>
        <path d="m145.066406 256c-4.710937 0-8.53125-3.820312-8.53125-8.535156.636719-34.078125 18.179688-65.609375 46.808594-84.113282 4.027344-2.347656 9.195312-1.019531 11.601562 2.972657 2.402344 3.996093 1.15625 9.183593-2.804687 11.648437-23.53125 15.378906-37.953125 41.386719-38.539063 69.492188 0 4.714844-3.820312 8.535156-8.535156 8.535156zm0 0"/>
        <path d="m324.273438 349.867188c-3.832032 0-7.195313-2.550782-8.222657-6.242188-1.03125-3.691406.527344-7.613281 3.808594-9.597656 23.53125-15.378906 37.953125-41.386719 38.539063-69.492188 0-4.714844 3.820312-8.535156 8.535156-8.535156 4.710937 0 8.53125 3.820312 8.53125 8.535156-.636719 34.078125-18.179688 65.609375-46.808594 84.113282-1.320312.796874-2.835938 1.21875-4.382812 1.21875zm0 0"/>
        <path d="m238.933594 239.445312c-4.714844 0-8.535156-3.820312-8.535156-8.535156v-60.242187c0-14.140625 11.464843-25.601563 25.601562-25.601563s25.601562 11.460938 25.601562 25.601563v54.183593c0 4.714844-3.820312 8.535157-8.535156 8.535157-4.710937 0-8.53125-3.820313-8.53125-8.535157v-54.183593c0-4.714844-3.824218-8.535157-8.535156-8.535157s-8.535156 3.820313-8.535156 8.535157v60.242187c0 4.714844-3.820313 8.535156-8.53125 8.535156zm0 0"/>
        <path d="m324.265625 281.601562h-43.175781c-4.714844 0-8.535156-3.820312-8.535156-8.535156 0-4.710937 3.820312-8.53125 8.535156-8.53125h43.175781c4.714844 0 8.535156-3.824218 8.535156-8.535156s-3.820312-8.535156-8.535156-8.535156h-37.117187c-4.714844 0-8.535157-3.820313-8.535157-8.53125 0-4.714844 3.820313-8.535156 8.535157-8.535156h37.117187c14.140625 0 25.601563 11.464843 25.601563 25.601562s-11.460938 25.601562-25.601563 25.601562zm0 0"/>
        <path d="m260.265625 290.132812c-21.207031 0-38.398437-17.191406-38.398437-38.398437s17.191406-38.402344 38.398437-38.402344 38.402344 17.195313 38.402344 38.402344c-.023438 21.195313-17.203125 38.375-38.402344 38.398437zm0-59.734374c-11.78125 0-21.332031 9.554687-21.332031 21.335937s9.550781 21.332031 21.332031 21.332031 21.335937-9.550781 21.335937-21.332031c-.015624-11.777344-9.558593-21.320313-21.335937-21.335937zm0 0"/>
      </g>
      <path d="M 17.626 33.615 C 17.549 33.615 17.474 33.596 17.407 33.558 L 12.175 30.628 C 12.042 30.552 11.958 30.413 11.96 30.264 L 12.002 24.407 C 12.002 24.255 12.087 24.116 12.223 24.04 L 17.495 21.112 C 17.631 21.037 17.797 21.037 17.933 21.112 L 23.163 24.04 C 23.297 24.116 23.38 24.255 23.38 24.407 L 23.338 30.264 C 23.336 30.415 23.253 30.554 23.115 30.63 L 17.843 33.558 C 17.776 33.596 17.701 33.615 17.626 33.615 Z M 12.836 30.019 L 17.632 32.704 L 22.465 30.021 L 22.501 24.651 L 17.707 21.965 L 12.875 24.651 Z" style="fill: rgb(66, 141, 255);" transform="matrix(0.99971, -0.0241, 0.0241, 0.99971, -0.65365, 0.433786)"/>
      <path d="M 17.712 31.874 C 17.56 31.874 17.413 31.799 17.333 31.663 C 17.214 31.462 17.287 31.203 17.498 31.087 L 21.451 28.89 C 21.659 28.773 21.928 28.842 22.048 29.044 C 22.167 29.249 22.093 29.507 21.883 29.622 L 17.93 31.818 C 17.86 31.857 17.785 31.874 17.712 31.874 Z" style="fill: rgb(66, 141, 255);" transform="matrix(0.99971, -0.0241, 0.0241, 0.99971, -0.7258, 0.483354)"/>
      <path d="M 28.136 33.362 C 28.059 33.362 27.984 33.341 27.917 33.305 L 22.685 30.377 C 22.551 30.299 22.468 30.161 22.47 30.01 L 22.511 24.153 C 22.513 24.003 22.596 23.862 22.733 23.788 C 22.424 23.901 27.598 21.009 28.005 20.858 C 28.141 20.783 28.307 20.783 28.442 20.858 L 33.673 23.788 C 33.807 23.864 33.889 24.003 33.889 24.153 L 33.848 30.01 C 33.848 30.161 33.763 30.301 33.625 30.377 L 28.353 33.305 C 28.287 33.341 28.21 33.362 28.136 33.362 Z M 23.346 29.766 L 28.142 32.452 L 32.975 29.767 L 33.013 24.397 L 28.217 21.712 L 23.385 24.397 L 23.346 29.766 Z" style="fill: rgb(66, 141, 255);" transform="matrix(0.99971, -0.0241, 0.0241, 0.99971, -0.644488, 0.686991)"/>
      <path d="M 28.222 31.62 C 28.07 31.62 27.923 31.545 27.842 31.409 C 27.723 31.207 27.797 30.949 28.008 30.832 L 31.961 28.636 C 32.17 28.518 32.438 28.588 32.558 28.791 C 32.677 28.994 32.603 29.252 32.393 29.368 L 28.439 31.564 C 28.372 31.603 28.295 31.62 28.222 31.62 Z" style="fill: rgb(66, 141, 255);" transform="matrix(0.99971, -0.0241, 0.0241, 0.99971, -0.716622, 0.736562)"/>
      <path d="M 21.337 25.634 C 21.262 25.634 21.186 25.616 21.118 25.577 L 17.195 23.381 C 16.986 23.264 16.917 23.006 17.04 22.804 C 17.162 22.602 17.431 22.533 17.64 22.65 L 21.562 24.845 C 21.771 24.962 21.841 25.221 21.717 25.423 C 21.636 25.558 21.489 25.634 21.337 25.634 Z" style="fill: rgb(66, 141, 255);" transform="matrix(0.99971, -0.0241, 0.0241, 0.99971, -0.575507, 0.474031)"/>
      <path d="M 33.223 24.449 C 33.148 24.449 33.073 24.431 33.006 24.394 L 27.775 21.464 C 27.639 21.389 27.558 21.249 27.559 21.098 L 27.599 15.242 C 27.6 15.092 27.686 14.95 27.821 14.875 L 33.093 11.947 C 33.23 11.872 33.397 11.872 33.531 11.947 L 38.762 14.875 C 38.897 14.95 38.978 15.092 38.977 15.242 L 38.937 21.099 C 38.935 21.25 38.852 21.391 38.715 21.467 L 33.443 24.394 C 33.374 24.431 33.299 24.449 33.223 24.449 Z M 28.435 20.855 L 33.23 23.54 L 38.063 20.855 L 38.101 15.486 L 33.307 12.801 L 28.474 15.486 Z" style="fill: rgb(66, 141, 255);" transform="matrix(0.99971, -0.0241, 0.0241, 0.99971, -0.428231, 0.807036)"/>
      <path d="M 13.92 30.158 C 13.678 30.158 13.485 29.97 13.487 29.734 L 13.516 25.342 C 13.518 25.109 13.714 24.92 13.957 24.92 C 14.199 24.92 14.394 25.109 14.393 25.342 L 14.361 29.734 C 14.36 29.968 14.162 30.158 13.92 30.158 Z" style="fill: rgb(66, 141, 255);" transform="matrix(0.99971, -0.0241, 0.0241, 0.99971, -0.659641, 0.343952)"/>
      <path d="M 33.135 12.737 C 32.893 12.737 32.697 12.547 32.699 12.314 L 32.719 9.622 C 32.72 9.388 32.918 9.199 33.16 9.199 C 33.402 9.199 33.596 9.388 33.593 9.622 L 33.575 12.314 C 33.573 12.547 33.377 12.737 33.135 12.737 Z" style="fill: rgb(66, 141, 255);" transform="matrix(0.99971, -0.0241, 0.0241, 0.99971, -0.254702, 0.802004)"/>
      <path d="M 17.778 36.205 C 17.537 36.205 17.343 36.015 17.343 35.782 L 17.362 33.191 C 17.363 32.959 17.561 32.77 17.803 32.77 C 18.044 32.77 18.239 32.959 18.238 33.191 L 18.22 35.782 C 18.218 36.015 18.021 36.205 17.778 36.205 Z" style="fill: rgb(66, 141, 255);" transform="matrix(0.99971, -0.0241, 0.0241, 0.99971, -0.825981, 0.438768)"/>
    </g>
  </g>
</svg>